<svg xmlns="http://www.w3.org/2000/svg" version="1.1" xmlns:xlink="http://www.w3.org/1999/xlink" width="1500" height="1500" viewBox="0 0 1500 1500"><rect width="1500" height="1500" x="0" y="0" id="background" stroke="transparent" fill="#ffffff"></rect><svg xml:space="preserve" width="1000" height="1000" data-version="2" data-id="lg_5YBLg3ACTLbxsdS5TY" viewBox="0 0 289 388" x="250" y="250"><rect width="100%" height="100%" fill="transparent"></rect><path fill="#915eff" d="M165.875 383.115q-16.92 0-33.48-1.33-16.55-1.33-27.55-9.06-11-7.74-11.24-26.35-.24-14.02 1.57-31.18t3.99-33.11q2.17-15.95 3.38-25.86l-36.01-28.04-34.32-123.27-29-33.35q.72-20.3 8.45-32.75 7.74-12.45 18.49-18.98 10.76-6.52 21.03-8.82 10.27-2.29 16.08-2.29 13.05-.25 24.29 2.41 11.24 2.66 20.9 9.43l32.15 203.03h10.88l36.98-105.87q-12.09-10.63-22.24-23.2-10.15-12.57-19.34-32.39 7.98-18.85 23.57-30.94 15.59-12.08 34.32-18.61 18.73-6.52 36.13-8.7 19.82 16.2 29.37 40.73 9.55 24.53 10.51 52.08-4.83 12.57-13.17 30.7t-19.21 38.31q-10.88 20.18-23.33 39.52-12.44 19.33-25.74 34.32l-32.87 18.37 23.45 118.67q-6.77 2.42-14.99 4.47-8.22 2.06-13.05 2.06"></path><rect width="281.57" height="379.23" x="-140.78" y="-189.62" fill="none" rx="0" ry="0" transform="translate(144.5 194)"></rect></svg></svg>